<svg width="123" height="123" viewBox="0 0 123 123" fill="none" xmlns="http://www.w3.org/2000/svg">
<mask id="mask0_306_77" style="mask-type:luminance" maskUnits="userSpaceOnUse" x="0" y="0" width="123" height="123">
<path d="M123 0H0V123H123V0Z" fill="white"/>
</mask>
<g mask="url(#mask0_306_77)">
<path d="M101.059 26.5966C90.9825 35.4931 75.5742 34.9138 75.5742 34.9138C75.5742 34.9138 76.5002 19.9115 86.5723 11.0149C96.6486 2.11834 112.057 2.69763 112.057 2.69763C112.057 2.69763 111.131 17.7 101.059 26.5966Z" fill="#6FE92E"/>
<path d="M19.0151 87.7861C21.2054 66.3566 40.3558 50.7623 61.7854 52.9526C66.2717 53.4135 70.5001 54.6143 74.3691 56.4283C68.1322 49.5952 59.464 44.9397 49.5357 43.9249C28.1061 41.7346 8.95571 57.329 6.7654 78.7585C5.03176 95.7017 14.4188 111.216 29.0195 118.053C21.7931 110.133 17.8396 99.2874 19.0193 87.7861H19.0151Z" fill="#414141"/>
<path d="M77.9801 36.5161C77.1218 36.4273 76.2676 36.3724 75.422 36.3428C77.1006 37.2054 80.1239 37.7635 81.6462 38.8502C97.3209 45.1928 106.192 61.7301 104.382 79.3964C102.492 97.8576 88.0184 111.989 70.3438 114.15C91.6507 116.167 110.632 100.619 112.814 79.2907C115.004 57.8611 99.4097 38.7107 77.9801 36.5204V36.5161Z" fill="#414141"/>
<path d="M68.4704 36.8971C65.3921 36.5799 61.1933 35.6412 58.6394 32.8589C55.8021 29.7722 55.3497 24.9561 55.3877 21.8905C55.6203 21.9158 55.8993 21.9031 56.2123 21.937C59.2948 22.2541 63.4851 23.2309 66.0391 26.0132C68.8805 29.0618 69.3288 33.916 69.3288 36.9859L68.4704 36.8971ZM68.5211 23.7044C65.223 20.1357 60.1404 18.9855 56.5505 18.6177C54.0177 18.3597 52.2291 18.4908 52.2291 18.4908C52.2291 18.4908 50.5927 29.0787 56.1615 35.1254C59.4597 38.6941 64.538 39.8823 68.1279 40.2502C70.6607 40.5081 72.4493 40.377 72.4493 40.377C72.4493 40.377 74.128 29.7553 68.5211 23.7044Z" fill="#6FE92E"/>
<path d="M78.8061 71.5878C78.594 68.4517 75.8797 66.0814 72.7435 66.2935C69.6074 66.5057 67.2371 69.22 67.4492 72.3561C67.6614 75.4922 70.3757 77.8626 73.5118 77.6504C76.6479 77.4383 79.0183 74.7239 78.8061 71.5878Z" fill="#414141"/>
<path d="M71.7517 85.7521C72.8384 93.7184 71.1936 99.8538 67.4049 106.349C64.1068 112.006 57.4216 117.681 50.6181 118.611C48.3137 118.924 46.0557 118.696 43.9838 118.015C43.1762 117.753 42.3981 117.419 41.6539 117.025C37.5482 114.856 34.5164 110.814 33.8398 105.862C32.7278 97.71 38.4361 90.2004 46.5885 89.0883C46.6857 89.0756 46.783 89.0672 46.8802 89.0545C44.8083 88.3779 42.5546 88.1454 40.2501 88.4625C36.7109 88.9445 33.6327 90.6359 31.3705 93.0588C28.4275 96.2174 26.8714 100.623 27.5015 105.237C27.8397 107.723 28.7784 109.981 30.1442 111.888C31.7468 114.129 33.9498 115.875 36.4826 116.945C41.9457 119.655 48.246 120.818 54.7451 119.934C72.0181 117.579 84.1113 101.668 81.7561 84.3905C81.0161 78.9782 71.6164 84.7753 71.7517 85.7563V85.7521Z" fill="#414141"/>
</g>
</svg>
